# xmcd
#
# Track frame offsets: 
#        150
#        11091
#        22400
#        32844
#        47829
#        63960
#        75357
#        88471
#        102322
#        117333
#        127751
#        141623
#        155916
#        170245
#        181888
#        199566
#        217526
#
# Disc length: 3113 seconds
#
# Revision: 0
# Processed by: cddbd v1.5.2PL0 Copyright (c) Steve Scherf et al.
# Submitted via: ExactAudioCopy v0.99pb3
#
DISCID=f10c2711
DTITLE=The Joel Paterson Trio - Steel Is Real
DYEAR=2008
DGENRE=Country
TTITLE0=JP's Shuffle
TTITLE1=Indian Love Call
TTITLE2=Steel Before Sunrise
TTITLE3=Pedal Madness
TTITLE4=La Rosita
TTITLE5=Coconut Grove
TTITLE6=La Cumparsita
TTITLE7=Slidin' The Scales
TTITLE8=Walkin Ten Strings
TTITLE9=The Alley
TTITLE10=Boppin' Steel Guitar
TTITLE11=Panhandle Rag
TTITLE12=Nuages
TTITLE13=What Is This Thing (Called Love)
TTITLE14=All Day Long
TTITLE15=12th Street Rag
TTITLE16=When You're Smiling
EXTD=
EXTT0=
EXTT1=
EXTT2=
EXTT3=
EXTT4=
EXTT5=
EXTT6=
EXTT7=
EXTT8=
EXTT9=
EXTT10=
EXTT11=
EXTT12=
EXTT13=
EXTT14=
EXTT15=
EXTT16=
PLAYORDER=
